<svg version="1.1" id="Layer_1" xmlns="http://www.w3.org/2000/svg" xmlns:xlink="http://www.w3.org/1999/xlink" x="0px" y="0px"
	 width="30px" height="24.4px" viewBox="0 0 30 24.4" enable-background="new 0 0 30 24.4" xml:space="preserve">
<g>
	<polygon fill="#403C44" points="19.5,21.1 21.5,17.6 24.8,16.4 27.4,17.8 30,23.1 27.9,24.1 20.5,24.1 	"/>
	<polygon fill="#83827A" points="27.9,24.1 24.8,20.2 27.4,17.8 30,23.1 	"/>
	<polygon fill="#908E82" points="24.8,20.2 22.8,18.4 24.8,16.4 27.4,17.8 	"/>
	<polygon fill="#8D8E7C" points="22.8,18.4 19.8,19.2 21.5,17.6 24.8,16.4 	"/>
</g>
<path fill="#848470" d="M6.2,0c0,0,1.5,0.1,2.6,0.6c0,0,1.3,1.5,2.2,1.8c0,0,0.9,0.6,2,1.3c0,0,2.3,1.5,2.6,2l1.1,1.4l-9,0.1
	L7.4,5.9L6.6,2.1L6.2,0z"/>
<path fill="#908E82" d="M8.1,8C8.3,8,19,8.5,19,8.5l-2.2-1.4l-9,0.1L8.1,8z"/>
<polygon fill="#83827A" points="8.1,13.5 9.2,14 10,15.9 13.4,15.3 13.4,17.2 18.6,20 20.6,14 19,8.5 8.1,8 "/>
<polygon fill="#7A7677" points="21.7,22.5 18.6,20 20.6,14 22.3,18.5 "/>
<polygon fill="#4C4652" points="5.5,0.9 5.6,0.2 6.2,0 7.7,7.2 5.6,8.6 "/>
<polygon fill="#45404C" points="5.4,9.2 8.1,8 7.7,7.2 5.6,8.6 "/>
<path fill="#4C4652" d="M6.5,16.3c0-0.1,1.6-2.8,1.6-2.8l0-5.5L5.4,9.2l0,5.2L6.5,16.3z"/>
<polygon fill="#413A49" points="7.8,20.8 7.8,23.8 14.9,23.8 9.1,18.3 8.1,13.5 6.5,16.3 "/>
<path fill="#4C4652" d="M21.8,24c0-0.1-0.1-1.4-0.1-1.4l-3-2.6l-5.2-2.8L10,15.9L9.2,14l-1.1-0.4c0,0,0.8,4.7,0.8,4.8
	c0,0.1,6,5.5,6,5.5L21.8,24z"/>
<polygon fill="#433E49" points="10,15.9 13.4,15.3 13.4,17.3 "/>
<g>
	<polygon fill="#83827A" points="19.8,24.4 16.6,21.8 9.2,18.7 3.3,17.8 7.9,20.2 9,21.5 11.4,22.5 15.4,23.4 	"/>
	<path fill="#4C4652" d="M0,23.7c0-0.4,1.3-2.9,1.3-2.9l4.1-0.6l2.5-0.1l1,1.3L0,23.7z"/>
	<polygon fill="#3C3544" points="0,23.7 1.2,24.1 19.8,24.4 11.4,22.5 9,21.5 	"/>
	<polygon fill="#403C44" points="3.3,17.7 1.3,20.8 7.9,20.2 	"/>
</g>
<polygon fill="#8D8E7C" points="7.9,20.2 9.2,18.7 3.3,17.7 "/>
</svg>
